<?xml version="1.0" encoding="UTF-8"?>
<svg id="Layer_1" data-name="Layer 1" xmlns="http://www.w3.org/2000/svg" xmlns:xlink="http://www.w3.org/1999/xlink" viewBox="0 0 2622.82 879.02">
  <defs>
    <style>
      .cls-1 {
        fill: url(#linear-gradient-8);
      }

      .cls-2 {
        fill: url(#linear-gradient-7);
      }

      .cls-3 {
        fill: url(#linear-gradient-5);
      }

      .cls-4 {
        fill: url(#linear-gradient-6);
      }

      .cls-5 {
        fill: url(#linear-gradient-9);
      }

      .cls-6 {
        fill: url(#linear-gradient-4);
      }

      .cls-7 {
        fill: url(#linear-gradient-3);
      }

      .cls-8 {
        fill: url(#linear-gradient-2);
      }

      .cls-9 {
        fill: url(#linear-gradient);
      }

      .cls-10 {
        fill: #063b4d;
      }
    </style>
    <linearGradient id="linear-gradient" x1="75.16" y1="150.09" x2="678.63" y2="753.55" gradientUnits="userSpaceOnUse">
      <stop offset="0" stop-color="#00b39f"/>
      <stop offset=".18" stop-color="#00ada2"/>
      <stop offset=".41" stop-color="#009dac"/>
      <stop offset=".67" stop-color="#0083bc"/>
      <stop offset=".94" stop-color="#005fd3"/>
      <stop offset="1" stop-color="#0057d9"/>
    </linearGradient>
    <linearGradient id="linear-gradient-2" x1="697.32" y1="172.89" x2="843.76" y2="319.33" xlink:href="#linear-gradient"/>
    <linearGradient id="linear-gradient-3" x1="2267.35" y1="916.93" x2="1113.47" y2="375.91" gradientUnits="userSpaceOnUse">
      <stop offset="0" stop-color="#1b7a8d"/>
      <stop offset="1" stop-color="#063b4d"/>
    </linearGradient>
    <linearGradient id="linear-gradient-4" x1="2311.59" y1="822.58" x2="1157.71" y2="281.56" gradientUnits="userSpaceOnUse">
      <stop offset="0" stop-color="#1b7a8d"/>
      <stop offset="1" stop-color="#063b4d"/>
    </linearGradient>
    <linearGradient id="linear-gradient-5" x1="2354.86" y1="730.28" x2="1200.98" y2="189.27" xlink:href="#linear-gradient-4"/>
    <linearGradient id="linear-gradient-6" x1="2393.96" y1="646.9" x2="1240.08" y2="105.88" xlink:href="#linear-gradient-4"/>
    <linearGradient id="linear-gradient-7" x1="2449.96" y1="527.46" x2="1296.08" y2="-13.56" xlink:href="#linear-gradient-4"/>
    <linearGradient id="linear-gradient-8" x1="2467.99" y1="489.01" x2="1314.11" y2="-52.01" xlink:href="#linear-gradient-4"/>
    <linearGradient id="linear-gradient-9" x1="2510.14" y1="399.1" x2="1356.26" y2="-141.91" xlink:href="#linear-gradient-4"/>
  </defs>
  <g>
    <path class="cls-9" d="M770.54,420.81c-71.19,0-132.43-42.59-159.65-103.68l-228.02,124.21-1.3,153.56,256.92-139.64v129.38s-248.21,143.31-248.21,143.31l-248.21-143.3v-286.61s248.2-143.31,248.2-143.31l207.93,120.04c-1.54-9.33-2.35-18.9-2.35-28.67,0-43.02,15.56-82.4,41.35-112.85L421.2,8.58c-19.81-11.43-44.21-11.43-64.02,0L32.01,196.33C12.2,207.77,0,228.9,0,251.77v375.49c0,22.87,12.21,44,32.02,55.44l325.19,187.74c19.81,11.43,44.21,11.43,64.02,0l325.18-187.75c19.81-11.44,32.01-32.57,32.01-55.44v-206.62c-2.61.12-5.23.18-7.87.18Z"/>
    <circle class="cls-8" cx="770.54" cy="246.11" r="103.55"/>
  </g>
  <g>
    <path class="cls-7" d="M1188.23,301.58c-8.67-18.22-21.22-32.34-37.65-42.36-16.44-10.01-35.57-15.02-57.38-15.02s-41.46,5.01-58.95,15.02c-17.48,10.02-31.23,24.36-41.24,43.03-10.02,18.68-15.02,40.27-15.02,64.77s5,46.02,15.02,64.55c10.01,18.53,23.76,32.8,41.24,42.81,17.48,10.02,37.13,15.02,58.95,15.02,30.48,0,55.58-9.11,75.31-27.34,19.72-18.22,31.22-42.88,34.52-73.96h-124.62v-33.17h168.1v31.38c-2.4,25.71-10.46,49.24-24.21,70.6-13.75,21.37-31.83,38.26-54.24,50.65-22.41,12.41-47.37,18.6-74.86,18.6-28.99,0-55.44-6.79-79.34-20.4-23.91-13.59-42.81-32.5-56.71-56.71-13.9-24.21-20.84-51.55-20.84-82.03s6.95-57.9,20.84-82.26c13.9-24.35,32.79-43.33,56.71-56.93,23.9-13.59,50.35-20.4,79.34-20.4,33.17,0,62.53,8.22,88.08,24.65,25.55,16.44,44.15,39.6,55.81,69.48h-48.86Z"/>
    <path class="cls-6" d="M1497.16,289.52v233.95h-38.85v-34.58c-7.4,11.95-17.72,21.28-30.95,27.96-13.23,6.68-27.82,10.03-43.76,10.03-18.22,0-34.58-3.77-49.1-11.31-14.51-7.54-25.98-18.85-34.37-33.94-8.4-15.08-12.59-33.44-12.59-55.07v-137.04h38.42v131.92c0,23.05,5.83,40.77,17.5,53.15,11.67,12.38,27.6,18.57,47.81,18.57s37.14-6.4,49.1-19.21c11.95-12.81,17.93-31.44,17.93-55.93v-128.5h38.85Z"/>
    <path class="cls-3" d="M1555.65,243.84c-5.12-5.12-7.68-11.38-7.68-18.78s2.56-13.66,7.68-18.78c5.12-5.12,11.38-7.68,18.78-7.68s13.16,2.56,18.14,7.68c4.98,5.12,7.47,11.39,7.47,18.78s-2.49,13.66-7.47,18.78c-4.98,5.12-11.03,7.68-18.14,7.68s-13.66-2.56-18.78-7.68ZM1593.22,289.52v233.95h-38.85v-233.95h38.85Z"/>
    <path class="cls-4" d="M1650.85,342.67c9.67-18.07,22.98-32.09,39.92-42.05,16.93-9.96,35.93-14.94,56.99-14.94,18.21,0,35.15,4.2,50.8,12.59,15.65,8.4,27.6,19.42,35.86,33.09v-123.81h39.28v315.92h-39.28v-43.97c-7.68,13.95-19.07,25.4-34.15,34.37-15.09,8.97-32.73,13.45-52.94,13.45s-39.64-5.12-56.57-15.37c-16.94-10.25-30.24-24.61-39.92-43.12-9.68-18.5-14.51-39.56-14.51-63.18s4.84-44.89,14.51-62.97ZM1823.75,359.96c-7.12-13.09-16.72-23.12-28.82-30.1-12.1-6.97-25.4-10.46-39.92-10.46s-27.75,3.42-39.7,10.25c-11.95,6.83-21.49,16.8-28.6,29.88-7.12,13.09-10.67,28.46-10.67,46.11s3.56,33.51,10.67,46.75c7.11,13.23,16.65,23.34,28.6,30.31,11.95,6.98,25.19,10.46,39.7,10.46s27.82-3.48,39.92-10.46c12.09-6.97,21.7-17.08,28.82-30.31,7.11-13.23,10.67-28.67,10.67-46.32s-3.56-33.01-10.67-46.11Z"/>
    <path class="cls-2" d="M2190.74,211.03l-117.89,312.44h-47.07l-117.89-312.44h43.48l98.17,269.41,98.17-269.41h43.03Z"/>
    <path class="cls-1" d="M2231.13,512.37c-17.79-9.96-31.74-24.12-41.84-42.48-10.11-18.36-15.16-39.63-15.16-63.82s5.19-45.04,15.58-63.4c10.39-18.36,24.55-32.45,42.48-42.26,17.93-9.82,38-14.73,60.2-14.73s42.26,4.91,60.2,14.73c17.93,9.82,32.09,23.84,42.48,42.05,10.39,18.22,15.58,39.42,15.58,63.61s-5.34,45.47-16.01,63.82c-10.67,18.36-25.12,32.52-43.33,42.48-18.22,9.97-38.42,14.94-60.62,14.94s-41.77-4.98-59.56-14.94ZM2329.96,483.34c12.23-6.54,22.13-16.36,29.67-29.46,7.54-13.09,11.31-29.03,11.31-47.81s-3.7-34.72-11.1-47.81c-7.4-13.09-17.08-22.84-29.03-29.24-11.95-6.4-24.91-9.61-38.85-9.61s-27.26,3.2-39.06,9.61c-11.81,6.4-21.28,16.16-28.39,29.24-7.12,13.09-10.67,29.03-10.67,47.81s3.48,35.15,10.46,48.24c6.97,13.09,16.29,22.84,27.96,29.24,11.67,6.4,24.47,9.61,38.42,9.61s27.04-3.27,39.28-9.82Z"/>
    <path class="cls-5" d="M2578.85,523.47l-55.5-87.09-53.36,87.09h-40.56l75.56-116.12-75.56-117.83h43.97l55.5,86.66,52.94-86.66h40.56l-75.14,115.69,75.57,118.26h-43.97Z"/>
  </g>
  <g>
    <path class="cls-10" d="M1006.48,610.58v5.07h-26.68v88.59h-6v-88.59h-26.68v-5.07h59.37Z"/>
    <path class="cls-10" d="M1074.51,638.26c5.42,5.29,8.14,13.14,8.14,23.55v42.42h-5.87v-42.02c0-8.63-2.18-15.23-6.54-19.81-4.36-4.58-10.27-6.87-17.74-6.87s-14.07,2.49-18.74,7.47c-4.67,4.98-7,12.36-7,22.15v39.09h-6v-98.72h6v41.62c2.04-5.42,5.47-9.58,10.27-12.47,4.8-2.89,10.32-4.34,16.54-4.34,8.54,0,15.52,2.65,20.95,7.94Z"/>
    <path class="cls-10" d="M1168.83,670.35h-62.57c.18,6.49,1.6,11.96,4.27,16.41,2.67,4.45,6.18,7.78,10.54,10.01,4.36,2.22,9.12,3.34,14.28,3.34,7.11,0,13.07-1.76,17.88-5.27,4.8-3.51,7.83-8.29,9.07-14.34h6.27c-1.42,7.38-5.07,13.36-10.94,17.94-5.87,4.58-13.3,6.87-22.28,6.87-6.76,0-12.81-1.51-18.14-4.54-5.34-3.02-9.52-7.36-12.54-13.01-3.02-5.65-4.54-12.25-4.54-19.81s1.49-14.14,4.47-19.74c2.98-5.6,7.14-9.89,12.47-12.87,5.34-2.98,11.43-4.47,18.28-4.47s12.96,1.49,18.08,4.47c5.11,2.98,9.01,6.94,11.67,11.87,2.67,4.94,4,10.25,4,15.94,0,3.2-.09,5.6-.27,7.2ZM1159.7,649.14c-2.53-4.45-5.98-7.76-10.34-9.94-4.36-2.18-9.07-3.27-14.14-3.27s-9.76,1.09-14.07,3.27c-4.32,2.18-7.83,5.49-10.54,9.94-2.71,4.45-4.16,9.87-4.34,16.28h56.83c.27-6.4-.87-11.83-3.4-16.28Z"/>
    <path class="cls-10" d="M1273.16,610.58v5.07h-42.29v39.09h36.95v5.07h-36.95v44.43h-6v-93.65h48.29Z"/>
    <path class="cls-10" d="M1350.27,631.79v72.44h-6v-15.74c-2.05,5.52-5.45,9.72-10.21,12.61-4.76,2.89-10.21,4.34-16.34,4.34-8.63,0-15.68-2.65-21.15-7.94-5.47-5.29-8.2-13.14-8.2-23.55v-42.16h5.87v41.76c0,8.63,2.18,15.23,6.54,19.81,4.36,4.58,10.27,6.87,17.74,6.87s14.07-2.49,18.74-7.47c4.67-4.98,7-12.36,7-22.15v-38.82h6Z"/>
    <path class="cls-10" d="M1381.09,637v47.89c0,5.34.98,9.01,2.94,11.01,1.96,2,5.42,3,10.41,3h8.14v5.34h-9.07c-6.32,0-10.96-1.49-13.94-4.47-2.98-2.98-4.47-7.94-4.47-14.88v-47.89h-10.94v-5.2h10.94v-18.41h6v18.41h21.48v5.2h-21.48Z"/>
    <path class="cls-10" d="M1479.68,631.79v72.44h-6v-15.74c-2.05,5.52-5.45,9.72-10.21,12.61-4.76,2.89-10.21,4.34-16.34,4.34-8.63,0-15.68-2.65-21.15-7.94-5.47-5.29-8.2-13.14-8.2-23.55v-42.16h5.87v41.76c0,8.63,2.18,15.23,6.54,19.81,4.36,4.58,10.27,6.87,17.74,6.87s14.07-2.49,18.74-7.47c4.67-4.98,7-12.36,7-22.15v-38.82h6Z"/>
    <path class="cls-10" d="M1517.03,634.53c4.54-2.8,10.32-4.2,17.34-4.2v6.27h-2c-7.12,0-13.03,2.02-17.74,6.07-4.72,4.05-7.07,10.65-7.07,19.81v41.76h-6v-72.44h6v14.94c1.78-5.34,4.94-9.41,9.47-12.21Z"/>
    <path class="cls-10" d="M1613.22,670.35h-62.57c.18,6.49,1.6,11.96,4.27,16.41,2.67,4.45,6.18,7.78,10.54,10.01,4.36,2.22,9.12,3.34,14.28,3.34,7.11,0,13.07-1.76,17.88-5.27,4.8-3.51,7.83-8.29,9.07-14.34h6.27c-1.42,7.38-5.07,13.36-10.94,17.94-5.87,4.58-13.3,6.87-22.28,6.87-6.76,0-12.81-1.51-18.14-4.54-5.34-3.02-9.52-7.36-12.54-13.01-3.02-5.65-4.54-12.25-4.54-19.81s1.49-14.14,4.47-19.74c2.98-5.6,7.14-9.89,12.47-12.87,5.34-2.98,11.43-4.47,18.28-4.47s12.96,1.49,18.08,4.47c5.11,2.98,9.01,6.94,11.67,11.87,2.67,4.94,4,10.25,4,15.94,0,3.2-.09,5.6-.27,7.2ZM1604.08,649.14c-2.53-4.45-5.98-7.76-10.34-9.94-4.36-2.18-9.07-3.27-14.14-3.27s-9.76,1.09-14.07,3.27c-4.32,2.18-7.83,5.49-10.54,9.94-2.71,4.45-4.16,9.87-4.34,16.28h56.83c.27-6.4-.87-11.83-3.4-16.28Z"/>
    <path class="cls-10" d="M1682.86,700.77c-5.43-3.02-9.67-7.36-12.74-13.01-3.07-5.65-4.6-12.25-4.6-19.81s1.56-14.03,4.67-19.68c3.11-5.65,7.4-9.96,12.87-12.94,5.47-2.98,11.58-4.47,18.34-4.47s12.85,1.49,18.28,4.47c5.42,2.98,9.67,7.27,12.74,12.87,3.07,5.6,4.6,12.19,4.6,19.74s-1.56,14.16-4.67,19.81c-3.11,5.65-7.4,9.99-12.87,13.01-5.47,3.02-11.59,4.54-18.34,4.54s-12.85-1.51-18.28-4.54ZM1715.88,696.43c4.58-2.36,8.25-5.94,11.01-10.74,2.76-4.8,4.14-10.72,4.14-17.74s-1.38-12.81-4.14-17.61c-2.76-4.8-6.4-8.38-10.94-10.74-4.54-2.36-9.43-3.54-14.68-3.54s-10.12,1.18-14.61,3.54c-4.49,2.36-8.12,5.94-10.87,10.74-2.76,4.8-4.14,10.67-4.14,17.61s1.35,12.94,4.07,17.74c2.71,4.8,6.31,8.38,10.81,10.74,4.49,2.36,9.36,3.54,14.61,3.54s10.16-1.18,14.74-3.54Z"/>
    <path class="cls-10" d="M1782.92,637.13h-18.81v67.11h-6v-67.11h-10.94v-5.34h10.94v-5.07c0-7.56,1.91-13.18,5.74-16.88,3.82-3.69,10.09-5.54,18.81-5.54v5.34c-6.94,0-11.76,1.33-14.48,4-2.71,2.67-4.07,7.03-4.07,13.07v5.07h18.81v5.34Z"/>
    <path class="cls-10" d="M1906.59,610.58l-35.75,93.65h-6.67l-35.62-93.65h6.54l32.42,86.58,32.69-86.58h6.4Z"/>
    <path class="cls-10" d="M1920.59,614.25c-.98-.93-1.47-2.2-1.47-3.8,0-1.51.49-2.76,1.47-3.74s2.18-1.47,3.6-1.47,2.62.49,3.6,1.47c.98.98,1.47,2.22,1.47,3.74,0,1.6-.49,2.87-1.47,3.8-.98.93-2.18,1.4-3.6,1.4s-2.62-.47-3.6-1.4ZM1927.13,631.79v72.44h-6v-72.44h6Z"/>
    <path class="cls-10" d="M1964.62,634.53c4.54-2.8,10.32-4.2,17.34-4.2v6.27h-2c-7.12,0-13.03,2.02-17.74,6.07-4.72,4.05-7.07,10.65-7.07,19.81v41.76h-6v-72.44h6v14.94c1.78-5.34,4.94-9.41,9.47-12.21Z"/>
    <path class="cls-10" d="M2004.77,637v47.89c0,5.34.98,9.01,2.94,11.01,1.96,2,5.42,3,10.41,3h8.14v5.34h-9.07c-6.32,0-10.96-1.49-13.94-4.47-2.98-2.98-4.47-7.94-4.47-14.88v-47.89h-10.94v-5.2h10.94v-18.41h6v18.41h21.48v5.2h-21.48Z"/>
    <path class="cls-10" d="M2103.36,631.79v72.44h-6v-15.74c-2.05,5.52-5.45,9.72-10.21,12.61-4.76,2.89-10.21,4.34-16.34,4.34-8.63,0-15.68-2.65-21.15-7.94-5.47-5.29-8.2-13.14-8.2-23.55v-42.16h5.87v41.76c0,8.63,2.18,15.23,6.54,19.81,4.36,4.58,10.27,6.87,17.74,6.87s14.07-2.49,18.74-7.47c4.67-4.98,7-12.36,7-22.15v-38.82h6Z"/>
    <path class="cls-10" d="M2125.97,648.34c2.98-5.6,7.11-9.92,12.41-12.94,5.29-3.02,11.32-4.54,18.08-4.54,7.65,0,14.14,1.87,19.48,5.6,5.34,3.74,9.07,8.49,11.21,14.28v-18.94h6v72.44h-6v-19.08c-2.13,5.87-5.89,10.7-11.27,14.48-5.38,3.78-11.85,5.67-19.41,5.67-6.76,0-12.79-1.53-18.08-4.6-5.29-3.07-9.43-7.43-12.41-13.07-2.98-5.65-4.47-12.21-4.47-19.68s1.49-14.01,4.47-19.61ZM2183.21,651.21c-2.62-4.85-6.2-8.58-10.74-11.21-4.54-2.62-9.61-3.94-15.21-3.94s-11.03,1.27-15.48,3.8c-4.45,2.53-7.92,6.2-10.41,11.01-2.49,4.8-3.74,10.5-3.74,17.08s1.24,12.27,3.74,17.08c2.49,4.8,5.98,8.49,10.47,11.07,4.49,2.58,9.63,3.87,15.41,3.87s10.69-1.31,15.28-3.94c4.58-2.62,8.16-6.36,10.74-11.21,2.58-4.85,3.87-10.47,3.87-16.88s-1.31-11.89-3.94-16.74Z"/>
    <path class="cls-10" d="M2221.03,605.51v98.72h-6v-98.72h6Z"/>
    <path class="cls-10" d="M2332.43,610.58v5.07h-26.68v88.59h-6v-88.59h-26.68v-5.07h59.37Z"/>
    <path class="cls-10" d="M2360.31,700.77c-5.43-3.02-9.67-7.36-12.74-13.01-3.07-5.65-4.6-12.25-4.6-19.81s1.56-14.03,4.67-19.68c3.11-5.65,7.4-9.96,12.87-12.94,5.47-2.98,11.58-4.47,18.34-4.47s12.85,1.49,18.28,4.47c5.42,2.98,9.67,7.27,12.74,12.87,3.07,5.6,4.6,12.19,4.6,19.74s-1.56,14.16-4.67,19.81c-3.11,5.65-7.4,9.99-12.87,13.01-5.47,3.02-11.59,4.54-18.34,4.54s-12.85-1.51-18.28-4.54ZM2393.33,696.43c4.58-2.36,8.25-5.94,11.01-10.74,2.76-4.8,4.14-10.72,4.14-17.74s-1.38-12.81-4.14-17.61c-2.76-4.8-6.4-8.38-10.94-10.74-4.54-2.36-9.43-3.54-14.68-3.54s-10.12,1.18-14.61,3.54c-4.49,2.36-8.12,5.94-10.87,10.74-2.76,4.8-4.14,10.67-4.14,17.61s1.35,12.94,4.07,17.74c2.71,4.8,6.31,8.38,10.81,10.74,4.49,2.36,9.36,3.54,14.61,3.54s10.16-1.18,14.74-3.54Z"/>
    <path class="cls-10" d="M2493.98,631.79v72.44h-6v-15.74c-2.05,5.52-5.45,9.72-10.21,12.61-4.76,2.89-10.21,4.34-16.34,4.34-8.63,0-15.68-2.65-21.15-7.94-5.47-5.29-8.2-13.14-8.2-23.55v-42.16h5.87v41.76c0,8.63,2.18,15.23,6.54,19.81,4.36,4.58,10.27,6.87,17.74,6.87s14.07-2.49,18.74-7.47c4.67-4.98,7-12.36,7-22.15v-38.82h6Z"/>
    <path class="cls-10" d="M2531.34,634.53c4.54-2.8,10.32-4.2,17.34-4.2v6.27h-2c-7.12,0-13.03,2.02-17.74,6.07-4.72,4.05-7.07,10.65-7.07,19.81v41.76h-6v-72.44h6v14.94c1.78-5.34,4.94-9.41,9.47-12.21Z"/>
    <path class="cls-10" d="M2566.89,699.97c-5.12-3.56-7.98-8.63-8.61-15.21h6.14c.44,4.72,2.6,8.45,6.47,11.21,3.87,2.76,9.14,4.14,15.81,4.14,5.51,0,9.89-1.4,13.14-4.2,3.25-2.8,4.87-6.25,4.87-10.34,0-2.85-.87-5.18-2.6-7-1.73-1.82-3.89-3.22-6.47-4.2-2.58-.98-6.09-2.04-10.54-3.2-5.34-1.42-9.65-2.82-12.94-4.2-3.29-1.38-6.09-3.45-8.4-6.2-2.31-2.76-3.47-6.45-3.47-11.07,0-3.38,1.02-6.51,3.07-9.41,2.04-2.89,4.89-5.18,8.54-6.87,3.65-1.69,7.78-2.53,12.41-2.53,7.56,0,13.67,1.89,18.34,5.67,4.67,3.78,7.18,9.01,7.54,15.68h-6c-.27-4.8-2.13-8.72-5.6-11.74-3.47-3.02-8.27-4.54-14.41-4.54-5.16,0-9.43,1.33-12.81,4-3.38,2.67-5.07,5.92-5.07,9.74,0,3.38.95,6.12,2.87,8.2,1.91,2.09,4.27,3.69,7.07,4.8,2.8,1.11,6.51,2.29,11.14,3.54,5.07,1.33,9.14,2.65,12.21,3.94,3.07,1.29,5.67,3.16,7.8,5.6,2.13,2.45,3.2,5.72,3.2,9.81,0,3.74-1.02,7.12-3.07,10.14-2.05,3.02-4.89,5.38-8.54,7.07-3.65,1.69-7.74,2.53-12.27,2.53-8.09,0-14.7-1.78-19.81-5.34Z"/>
  </g>
</svg>
